<svg width="105px" height="28px" viewBox="0 0 105 28" fill="#007bff"><path fill-rule="evenodd" clip-rule="evenodd" d="M48.1826 20.3227C48.0019 20.7396 47.7561 21.1054 47.4449 21.42C47.1336 21.735 46.7676 21.9845 46.348 22.1681C45.9281 22.3521 45.4789 22.4439 45 22.4439C44.5145 22.4439 44.0622 22.3521 43.6422 22.1681C43.2223 21.9845 42.8584 21.7372 42.5508 21.4247C42.2424 21.1133 41.998 20.7479 41.8177 20.3281C41.6374 19.908 41.5471 19.4616 41.5471 18.9893C41.5471 18.517 41.6374 18.0709 41.8177 17.6508C41.998 17.2314 42.2424 16.8653 42.5508 16.5532C42.8584 16.2425 43.2223 15.9945 43.6422 15.8105C44.0622 15.6273 44.5145 15.5351 45 15.5351C45.4789 15.5351 45.9281 15.6273 46.348 15.8105C46.7676 15.9945 47.1336 16.2439 47.4449 16.5586C47.7561 16.8736 48.0019 17.239 48.1826 17.6562C48.3629 18.0727 48.4532 18.517 48.4532 18.9893C48.4532 19.4616 48.3629 19.9066 48.1826 20.3227ZM49.4763 8.75415C49.1812 8.75415 48.9365 8.85135 48.7432 9.04467C48.5496 9.23871 48.4532 9.48279 48.4532 9.77763V14.6887C47.456 13.8813 46.3052 13.4784 45 13.4784C43.4785 13.4784 42.1797 14.0159 41.1045 15.0923C40.0285 16.1687 39.4912 17.4672 39.4912 18.9893C39.4912 20.5114 40.0285 21.8106 41.1045 22.8867C42.1797 23.9627 43.4785 24.5002 45 24.5002C46.5082 24.5002 47.8069 23.9627 48.8958 22.8867C49.9715 21.8236 50.5091 20.5243 50.5091 18.9893V9.77763C50.5091 9.48279 50.4091 9.23871 50.2093 9.04467C50.0089 8.85135 49.7649 8.75415 49.4763 8.75415Z" fill="#007bff"></path><path fill-rule="evenodd" clip-rule="evenodd" d="M60.2678 20.3226C60.0871 20.7395 59.8406 21.1052 59.5293 21.4199C59.2181 21.7349 58.8521 21.9844 58.4328 22.168C58.0129 22.3519 57.5638 22.4437 57.0848 22.4437C56.5994 22.4437 56.147 22.3519 55.7278 22.168C55.3078 21.9844 54.9436 21.737 54.6352 21.4246C54.3268 21.1132 54.0828 20.7478 53.9022 20.328C53.7219 19.9079 53.6316 19.4615 53.6316 18.9892C53.6316 18.5168 53.7219 18.0708 53.9022 17.6507C54.0828 17.2313 54.3268 16.8652 54.6352 16.553C54.9436 16.2424 55.3078 15.9943 55.7278 15.8104C56.147 15.6271 56.5994 15.535 57.0848 15.535C57.5638 15.535 58.0129 15.6271 58.4328 15.8104C58.8521 15.9943 59.2181 16.2438 59.5293 16.5584C59.8406 16.8734 60.0871 17.2388 60.2678 17.6561C60.4477 18.0726 60.5377 18.5168 60.5377 18.9892C60.5377 19.4615 60.4477 19.9064 60.2678 20.3226ZM60.9803 15.0922C59.8917 14.0158 58.593 13.4783 57.0848 13.4783C55.563 13.4783 54.2646 14.0158 53.1893 15.0922C52.1137 16.1686 51.5757 17.4671 51.5757 18.9892C51.5757 20.5112 52.1137 21.8105 53.1893 22.8865C54.2646 23.9626 55.563 24.5 57.0848 24.5C58.593 24.5 59.8917 23.9626 60.9803 22.8865C62.0559 21.8234 62.5943 20.5242 62.5943 18.9892C62.5871 18.2281 62.4511 17.5232 62.1858 16.8734C61.9203 16.224 61.5183 15.6304 60.9803 15.0922Z" fill="#007bff"></path><path fill-rule="evenodd" clip-rule="evenodd" d="M83.7575 14.5015C83.7575 14.3637 83.7302 14.233 83.6744 14.1081C83.6183 13.9835 83.5448 13.8737 83.4527 13.7783C83.361 13.6836 83.2526 13.6098 83.1281 13.5565C83.0036 13.5043 82.8687 13.4784 82.7247 13.4784C82.5214 13.4784 82.3379 13.531 82.1741 13.6357L76.2915 17.464V9.78771C76.2915 9.49899 76.1911 9.25491 75.991 9.05439C75.7913 8.85459 75.5502 8.75415 75.2677 8.75415C74.9791 8.75415 74.7351 8.85459 74.5353 9.05439C74.3353 9.25491 74.2349 9.49899 74.2349 9.78771V23.467C74.2349 23.7492 74.3353 23.9922 74.5353 24.1953C74.7351 24.3987 74.9791 24.5002 75.2677 24.5002C75.5502 24.5002 75.7913 24.3987 75.991 24.1953C76.1911 23.9922 76.2915 23.7492 76.2915 23.467V19.9141L77.4916 19.1275L82.0367 24.2349C82.2198 24.412 82.4494 24.5002 82.7247 24.5002C82.8687 24.5002 83.0036 24.4743 83.1281 24.4217C83.2526 24.3695 83.361 24.2957 83.4527 24.2003C83.5448 24.1056 83.6183 23.9951 83.6744 23.8705C83.7302 23.7467 83.7575 23.6142 83.7575 23.4771C83.7575 23.2085 83.6622 22.9687 83.4725 22.7581L79.2423 17.9953L83.3642 15.3184C83.6265 15.1409 83.7575 14.8695 83.7575 14.5015Z" fill="#007bff"></path><path fill-rule="evenodd" clip-rule="evenodd" d="M66.6904 16.5437C67.0049 16.2323 67.3723 15.986 67.7923 15.8057C68.2123 15.6253 68.6614 15.535 69.1403 15.535C69.5729 15.535 69.9723 15.6073 70.3405 15.7513C70.7068 15.896 71.0584 16.1095 71.3927 16.391C71.5896 16.5484 71.8127 16.6272 72.0617 16.6272C72.3568 16.6272 72.6008 16.5289 72.7944 16.332C72.9876 16.1351 73.0852 15.8888 73.0852 15.594C73.0852 15.2858 72.9668 15.0266 72.7307 14.8164C71.7206 13.9243 70.524 13.4783 69.1403 13.4783C67.6181 13.4783 66.3194 14.0158 65.2445 15.0922C64.1689 16.1686 63.6309 17.4671 63.6309 18.9892C63.6309 20.5112 64.1689 21.8105 65.2445 22.8865C66.3194 23.9626 67.6181 24.5 69.1403 24.5C70.5172 24.5 71.7141 24.054 72.7307 23.1619C72.947 22.9452 73.0553 22.6932 73.0553 22.4041C73.0553 22.1089 72.9581 21.8645 72.7652 21.6708C72.5716 21.4775 72.3269 21.3803 72.0322 21.3803C71.7832 21.3871 71.5665 21.4591 71.3826 21.597C71.0552 21.8792 70.7068 22.0909 70.3405 22.232C69.9723 22.3728 69.5729 22.4437 69.1403 22.4437C68.6614 22.4437 68.2123 22.353 67.7923 22.173C67.3723 21.9926 67.0049 21.7464 66.6904 21.435C66.3752 21.1232 66.1279 20.7575 65.9477 20.3374C65.7674 19.9176 65.677 19.4683 65.677 18.9892C65.677 18.5107 65.7674 18.0607 65.9477 17.6406C66.1279 17.2212 66.3752 16.8554 66.6904 16.5437Z" fill="#007bff"></path><path fill-rule="evenodd" clip-rule="evenodd" d="M104.192 14.1666C104.008 13.9898 103.777 13.8505 103.499 13.7483C103.22 13.6471 102.915 13.5762 102.584 13.5366C102.253 13.4974 101.942 13.4783 101.654 13.4783C100.998 13.4783 100.381 13.583 99.8044 13.7929C99.2272 14.0032 98.6932 14.3045 98.2009 14.6987V14.5014C98.2009 14.2199 98.1012 13.9783 97.9008 13.7782C97.7011 13.578 97.4592 13.4783 97.1778 13.4783C96.8889 13.4783 96.6452 13.578 96.4448 13.7782C96.2451 13.9783 96.145 14.2199 96.145 14.5014V23.4769C96.145 23.7592 96.2451 24 96.4448 24.2002C96.6452 24.4003 96.8889 24.5 97.1778 24.5C97.4592 24.5 97.7011 24.4003 97.9008 24.2002C98.1012 24 98.2009 23.7592 98.2009 23.4769V18.9892C98.2009 18.5107 98.2916 18.0607 98.4715 17.6406C98.6518 17.2212 98.8976 16.8554 99.2092 16.5437C99.5209 16.2323 99.8861 15.986 100.306 15.8057C100.725 15.6253 101.175 15.535 101.654 15.535C102.139 15.535 102.588 15.617 103.002 15.7812C103.166 15.8532 103.31 15.8888 103.435 15.8888C103.578 15.8888 103.713 15.8633 103.838 15.8104C103.962 15.7578 104.071 15.6844 104.162 15.589C104.254 15.4943 104.328 15.3841 104.384 15.2588C104.44 15.135 104.468 15.0004 104.468 14.8556C104.468 14.5738 104.375 14.3437 104.192 14.1666Z" fill="#007bff"></path><path fill-rule="evenodd" clip-rule="evenodd" d="M86.2107 17.9789C86.3154 17.6185 86.4766 17.2891 86.6925 16.9899C86.9092 16.6919 87.1647 16.4355 87.4601 16.2221C87.7552 16.0097 88.0802 15.8437 88.4339 15.7249C88.788 15.6075 89.1518 15.5485 89.5257 15.5485C89.8996 15.5485 90.2616 15.6075 90.6125 15.7249C90.9637 15.8437 91.2851 16.0097 91.5766 16.2221C91.8684 16.4355 92.1246 16.6919 92.3438 16.9899C92.5644 17.2891 92.7296 17.6185 92.8411 17.9789H86.2107ZM94.6314 16.8816C94.3622 16.2293 93.9588 15.6367 93.4219 15.1053C92.3323 14.0293 91.0339 13.4915 89.5257 13.4915C88.0042 13.4915 86.7055 14.0293 85.6302 15.1053C84.5542 16.1821 84.0166 17.4803 84.0166 19.0027C84.0166 20.5248 84.5542 21.824 85.6302 22.9001C86.7055 23.9757 88.0042 24.5139 89.5257 24.5139C90.9094 24.5139 92.1095 24.0675 93.1265 23.1755C93.1405 23.1625 93.1635 23.1416 93.1671 23.138C93.2564 23.0635 93.332 22.9836 93.3989 22.8831C93.7267 22.3932 93.6098 21.7394 93.1369 21.4226C92.7382 21.1551 92.2168 21.2163 91.8659 21.5357C91.8328 21.5659 91.7363 21.6559 91.7198 21.6696C91.7148 21.6735 91.7104 21.6779 91.7054 21.6818C91.4006 21.9381 91.0706 22.1311 90.7161 22.26C90.3548 22.3914 89.959 22.4573 89.5257 22.4573C89.145 22.4573 88.7797 22.3982 88.4285 22.2794C88.0784 22.1613 87.7563 21.9961 87.4648 21.783C87.1729 21.5699 86.9189 21.3143 86.7026 21.0151C86.486 20.717 86.3215 20.3873 86.2107 20.0262H94.002C94.2899 20.0262 94.5343 19.9293 94.7343 19.7357C94.9348 19.5423 95.0348 19.2975 95.0348 19.0027C95.0348 18.242 94.8999 17.535 94.6314 16.8816Z" fill="#007bff"></path><path fill-rule="evenodd" clip-rule="evenodd" d="M100.681 24.2849C100.362 24.2849 100.129 24.0343 100.129 23.719C100.129 23.4083 100.362 23.1538 100.677 23.1538C100.992 23.1538 101.221 23.4083 101.221 23.7237C101.221 24.0343 100.992 24.2849 100.681 24.2849ZM100.677 23.0112C100.272 23.0112 99.9478 23.3266 99.9478 23.719C99.9478 24.1211 100.272 24.4361 100.677 24.4361C101.087 24.4361 101.402 24.1211 101.402 23.719C101.402 23.3266 101.087 23.0112 100.677 23.0112Z" fill="#007bff"></path><path fill-rule="evenodd" clip-rule="evenodd" d="M100.647 23.6889H100.569V23.4859C100.587 23.4816 100.617 23.4776 100.66 23.4776C100.764 23.4776 100.811 23.5208 100.811 23.5852C100.811 23.6587 100.738 23.6889 100.647 23.6889ZM100.841 23.7408V23.7321C100.927 23.7062 100.988 23.6457 100.988 23.568C100.988 23.4988 100.958 23.4427 100.919 23.4128C100.867 23.3826 100.807 23.3606 100.673 23.3606C100.556 23.3606 100.466 23.3696 100.401 23.3826V24.0907H100.565V23.8056H100.643C100.733 23.8056 100.777 23.8398 100.789 23.9175C100.811 24 100.824 24.0644 100.845 24.0907H101.023C101.005 24.0644 100.992 24.0212 100.971 23.9132C100.949 23.8185 100.91 23.7667 100.841 23.7408Z" fill="#007bff"></path><path fill-rule="evenodd" clip-rule="evenodd" d="M37.605 11.0652C37.5039 10.9835 36.5589 10.2707 34.5678 10.2707C34.0697 10.2707 33.5443 10.3161 32.9984 10.4057C32.6137 7.76296 30.433 6.4756 30.3315 6.41728L29.7964 6.1084L29.4437 6.61636C29.4174 6.65416 28.7978 7.55632 28.4937 8.84044C28.1367 10.3485 28.3533 11.7644 29.1195 12.9765C28.1943 13.4913 26.7174 13.6256 26.4108 13.6295H1.84593C1.20501 13.6295 0.681415 14.1504 0.678896 14.7909C0.66918 17.051 1.04164 19.2351 1.7556 21.1067C2.60236 23.3265 3.86187 24.9605 5.49852 25.9638C7.33418 27.0885 10.3228 27.7336 13.6976 27.7336C15.2767 27.7336 16.8507 27.591 18.2491 27.321C20.4529 26.8962 22.4538 26.1694 24.1955 25.1618C25.7145 24.283 27.0787 23.1652 28.2504 21.8404C30.1969 19.6379 31.3564 17.178 32.2186 15.0011C32.3348 15.0058 32.4493 15.008 32.5623 15.008C34.693 15.008 36.0033 14.1562 36.7269 13.4412C37.5118 12.6658 37.7911 11.8929 37.8202 11.8072L37.9728 11.3604L37.605 11.0652Z" fill="#007bff"></path><path fill-rule="evenodd" clip-rule="evenodd" d="M4.12272 12.911H7.41474C7.57344 12.911 7.70263 12.7821 7.70263 12.6226V9.68899C7.70263 9.52951 7.57344 9.40063 7.41474 9.40063H4.12272C3.96366 9.40063 3.83447 9.52951 3.83447 9.68899V12.6226C3.83447 12.7821 3.96366 12.911 4.12272 12.911Z" fill="#007bff"></path><path fill-rule="evenodd" clip-rule="evenodd" d="M8.65934 12.911H11.9506C12.1101 12.911 12.2389 12.7821 12.2389 12.6226V9.68899C12.2389 9.52951 12.1101 9.40063 11.9506 9.40063H8.65934C8.49992 9.40063 8.37109 9.52951 8.37109 9.68899V12.6226C8.37109 12.7821 8.49992 12.911 8.65934 12.911Z" fill="#007bff"></path><path fill-rule="evenodd" clip-rule="evenodd" d="M13.2649 12.911H16.5566C16.7157 12.911 16.8448 12.7821 16.8448 12.6226V9.68899C16.8448 9.52951 16.7157 9.40063 16.5566 9.40063H13.2649C13.1059 9.40063 12.9771 9.52951 12.9771 9.68899V12.6226C12.9771 12.7821 13.1059 12.911 13.2649 12.911Z" fill="#007bff"></path><path fill-rule="evenodd" clip-rule="evenodd" d="M17.8166 12.911H21.1082C21.2676 12.911 21.3965 12.7821 21.3965 12.6226V9.68899C21.3965 9.52951 21.2676 9.40063 21.1082 9.40063H17.8166C17.6579 9.40063 17.5283 9.52951 17.5283 9.68899V12.6226C17.5283 12.7821 17.6579 12.911 17.8166 12.911Z" fill="#007bff"></path><path fill-rule="evenodd" clip-rule="evenodd" d="M8.65934 8.6898H11.9506C12.1101 8.6898 12.2389 8.56092 12.2389 8.4018V5.4678C12.2389 5.30868 12.1101 5.17944 11.9506 5.17944H8.65934C8.49992 5.17944 8.37109 5.30868 8.37109 5.4678V8.4018C8.37109 8.56092 8.49992 8.6898 8.65934 8.6898Z" fill="#007bff"></path><path fill-rule="evenodd" clip-rule="evenodd" d="M13.2649 8.6898H16.5566C16.7157 8.6898 16.8448 8.56092 16.8448 8.4018V5.4678C16.8448 5.30868 16.7157 5.17944 16.5566 5.17944H13.2649C13.1059 5.17944 12.9771 5.30868 12.9771 5.4678V8.4018C12.9771 8.56092 13.1059 8.6898 13.2649 8.6898Z" fill="#007bff"></path><path fill-rule="evenodd" clip-rule="evenodd" d="M17.8166 8.6898H21.1082C21.2676 8.6898 21.3965 8.56092 21.3965 8.4018V5.4678C21.3965 5.30868 21.2676 5.17944 21.1082 5.17944H17.8166C17.6579 5.17944 17.5283 5.30868 17.5283 5.4678V8.4018C17.5283 8.56092 17.6579 8.6898 17.8166 8.6898Z" fill="#007bff"></path><path fill-rule="evenodd" clip-rule="evenodd" d="M17.8166 4.46861H21.1082C21.2676 4.46861 21.3965 4.33937 21.3965 4.18025V1.24661C21.3965 1.08713 21.2676 0.958252 21.1082 0.958252H17.8166C17.6579 0.958252 17.5283 1.08713 17.5283 1.24661V4.18025C17.5283 4.33937 17.6579 4.46861 17.8166 4.46861Z" fill="#007bff"></path><path fill-rule="evenodd" clip-rule="evenodd" d="M22.4079 12.911H25.6992C25.8586 12.911 25.9874 12.7821 25.9874 12.6226V9.68899C25.9874 9.52951 25.8586 9.40063 25.6992 9.40063H22.4079C22.2485 9.40063 22.1196 9.52951 22.1196 9.68899V12.6226C22.1196 12.7821 22.2485 12.911 22.4079 12.911Z" fill="#007bff"></path></svg>