<svg xmlns="http://www.w3.org/2000/svg" viewBox="0 0 144 37.4"><defs><style>.cls-1{fill:#307fe2;}</style></defs><title>Asset 1</title><g id="Layer_2" data-name="Layer 2"><g id="Layer_1-2" data-name="Layer 1"><path class="cls-1" d="M9,10.9A8.84,8.84,0,0,0,.38,16.74c0,.45.07,1.25,1.38,1.66s2-.3,2.16-.78A5.29,5.29,0,0,1,9,14.09c3.22,0,5.55,2.15,5.55,5.11v1.27c0,.59-.79,1-1.54,1.15L6.64,23.29C1.86,24.38,0,26.23,0,29.89c0,4.28,3.88,7.51,9,7.51,5.48,0,9-3.35,9-8.53l.14-9.72C18.17,14.37,14.32,10.9,9,10.9ZM9,34.2c-3.13,0-5.41-1.81-5.41-4.31,0-2.28,1.25-3,3.88-3.61L13,24.81a4.82,4.82,0,0,0,1.6-.59l-.13,4.49h0C14.42,33.67,10.64,34.2,9,34.2Z"/><path class="cls-1" d="M59.43,27.84c-1.14-.16-1.85.33-2,.91A5.47,5.47,0,0,1,52,33.1c-3.39,0-5.58-2.37-5.58-6V20.17c0-3.67,2.19-6,5.58-6a5.47,5.47,0,0,1,5.49,4.35c.11.57.81,1.07,2,.91a2.09,2.09,0,0,0,1.42-.73,1.12,1.12,0,0,0,.22-.85c-.74-4-4.56-6.92-9.09-6.92s-9.22,2.82-9.22,9v7.4c0,6.2,4.78,9,9.22,9s8.35-2.91,9.09-6.92a1.12,1.12,0,0,0-.22-.84A2.08,2.08,0,0,0,59.43,27.84Z"/><path class="cls-1" d="M95.14,10.9c-4.44,0-9.22,2.82-9.22,9v7.31c0,6.2,4.78,9,9.22,9s9.23-2.82,9.23-9V19.91C104.37,13.72,99.59,10.9,95.14,10.9ZM100.72,27c0,3.67-2.19,6-5.58,6s-5.58-2.37-5.58-6v-6.8c0-3.67,2.19-6,5.58-6s5.58,2.37,5.58,6Z"/><path class="cls-1" d="M30.42,10.9c-4.44,0-9.22,2.82-9.22,9V34a1.65,1.65,0,0,0,.08.48l.06.22.2-.11a7.47,7.47,0,0,0,3.3-4V20.17c0-3.67,2.19-6,5.58-6S36,16.5,36,20.17v7.6a7.47,7.47,0,0,0,3.37,3.75l.26.14V19.91C39.64,13.72,34.86,10.9,30.42,10.9Z"/><path class="cls-1" d="M73.43,10.9a9.91,9.91,0,0,0-5.58,1.64v-11C67.85.55,67.18,0,66,0S64.2.55,64.2,1.52V31.67l.26-.14a7.47,7.47,0,0,0,3.37-3.75v-7.6c0-3.67,2.19-6,5.58-6S79,16.5,79,20.17V30.6a7.47,7.47,0,0,0,3.3,4l.2.11.06-.22a1.68,1.68,0,0,0,.08-.48V19.91C82.65,13.72,77.87,10.9,73.43,10.9Z"/><path class="cls-1" d="M124.05,14.37c-1.62-2.42-4.65-3.37-7-3.46v0h-.56c-6.1.2-8.84,4.64-8.84,9V34a1.68,1.68,0,0,0,.08.48l.06.22.2-.11a7.47,7.47,0,0,0,3.3-4V20.17c0-3.63,2.16-6,5.49-6a5.47,5.47,0,0,1,4.26,2,1.57,1.57,0,0,0,2.29.4c.93-.6,1.2-1.42.72-2.19Z"/><path class="cls-1" d="M142.25,29.9c-1.43-.44-2,.3-2.16.78A5.29,5.29,0,0,1,135,34.21c-3.22,0-5.55-2.15-5.55-5.11V27.83c0-.59.79-1,1.54-1.15L137.36,25c4.78-1.09,6.64-2.94,6.64-6.6,0-4.28-3.88-7.51-9-7.51-5.48,0-9,3.35-9,8.53l-.14,9.72c0,4.79,3.85,8.26,9.16,8.26a8.84,8.84,0,0,0,8.64-5.85C143.68,31,143.49,30.29,142.25,29.9ZM136.51,22,131,23.49a4.82,4.82,0,0,0-1.6.59l.13-4.49h0c0-4.95,3.78-5.48,5.41-5.48,3.13,0,5.41,1.81,5.41,4.31C140.39,20.69,139.14,21.39,136.51,22Z"/></g></g></svg>