<svg height="38" viewBox="0 0 144 38" width="144" xmlns="http://www.w3.org/2000/svg"><g fill="#fff" fill-rule="evenodd"><path d="m9.016 34.799c-3.135 0-5.41-1.812-5.41-4.31 0-2.283 1.249-2.984 3.88-3.613l5.469-1.466c.725-.161 1.246-.351 1.6-.587l-.13 4.491v.005c0 4.946-3.783 5.48-5.409 5.48zm0-23.306c-4.041 0-7.511 2.335-8.641 5.847-.047.445.068 1.251 1.376 1.655 1.434.441 1.963-.297 2.155-.784.744-2.139 2.75-3.522 5.11-3.522 3.216 0 5.551 2.151 5.551 5.113v1.27c0 .594-.794.981-1.543 1.147l-6.385 1.668c-4.777 1.088-6.639 2.939-6.639 6.602 0 4.282 3.876 7.511 9.016 7.511 5.476 0 9.015-3.347 9.015-8.526l.141-9.721c0-4.786-3.85-8.26-9.156-8.26z"/><path d="m59.434 28.434c-1.144-.161-1.853.334-1.961.91-.46 2.521-2.769 4.351-5.489 4.351-3.387 0-5.576-2.372-5.576-6.042v-6.884c0-3.67 2.189-6.042 5.576-6.042 2.721 0 5.029 1.83 5.489 4.352.108.574.81 1.068 1.961.909.635-.089 1.138-.348 1.419-.728.188-.254.265-.553.218-.848-.738-4.009-4.559-6.919-9.087-6.919-4.441 0-9.221 2.821-9.221 9.016v7.404c0 6.195 4.78 9.016 9.221 9.016 4.528 0 8.349-2.91 9.087-6.924.047-.29-.03-.59-.218-.844-.281-.38-.785-.638-1.419-.727"/><path d="m100.722 27.567c0 3.67-2.19 6.041-5.58 6.041-3.388 0-5.577-2.371-5.577-6.041v-6.798c0-3.67 2.189-6.042 5.577-6.042 3.39 0 5.58 2.372 5.58 6.042zm-5.58-16.074c-4.441 0-9.221 2.821-9.221 9.016v7.313c0 6.195 4.78 9.017 9.221 9.017 4.443 0 9.225-2.822 9.225-9.017v-7.313c0-6.195-4.782-9.016-9.225-9.016z"/><path d="m30.419 11.493c-4.441 0-9.221 2.821-9.221 9.016v14.056c0 .19.042.356.079.479l.064.216.195-.113c1.542-.897 2.682-2.262 3.296-3.95l.011-10.428c0-3.67 2.188-6.042 5.576-6.042 3.39 0 5.581 2.372 5.581 6.042v7.536l.013.068c.659 1.605 1.823 2.901 3.368 3.746l.263.144v-11.754c0-6.195-4.781-9.016-9.225-9.016"/><path d="m73.429 11.493c-2.061 0-4.028.581-5.581 1.644v-11.025c0-.964-.664-1.516-1.822-1.516s-1.822.552-1.822 1.516v30.151l.263-.144c1.545-.846 2.709-2.141 3.368-3.746l.013-7.604c0-3.67 2.191-6.042 5.581-6.042 3.388 0 5.576 2.372 5.576 6.042v10.366l.011.061c.614 1.688 1.754 3.054 3.296 3.951l.195.113.065-.217c.036-.123.078-.289.078-.478v-14.056c0-6.195-4.78-9.016-9.221-9.016"/><path d="m124.05 14.965c-1.615-2.419-4.647-3.368-7.014-3.456v-.016l-.32.003-.062-.003-.178.008v.004c-6.103.196-8.838 4.645-8.838 9.004v14.056c0 .189.041.355.078.478l.064.217.196-.113c1.541-.897 2.681-2.263 3.296-3.951l.01-10.427c0-3.628 2.159-5.996 5.495-6.035 1.726.032 3.161.716 4.264 2.034.672.81 1.44.943 2.288.396.93-.6 1.201-1.42.725-2.193z"/><path d="m136.514 22.618-5.469 1.465c-.726.161-1.248.352-1.601.588l.131-4.492v-.005c0-4.946 3.783-5.48 5.409-5.48 3.135 0 5.41 1.812 5.41 4.31 0 2.283-1.25 2.984-3.88 3.614zm5.735 7.88c-1.432-.44-1.963.298-2.155.784-.744 2.139-2.75 3.522-5.11 3.522-3.216 0-5.551-2.151-5.551-5.113v-1.27c0-.593.793-.981 1.543-1.147l6.384-1.668c4.778-1.087 6.64-2.939 6.64-6.602 0-4.282-3.876-7.511-9.016-7.511-5.476 0-9.015 3.347-9.015 8.526l-.142 9.721c0 4.786 3.851 8.26 9.157 8.26 4.041 0 7.511-2.335 8.64-5.847.058-.543-.133-1.272-1.375-1.655z"/></g></svg>